<?xml version="1.0" encoding="utf-8"?>
<!-- Generator: Adobe Illustrator 16.0.0, SVG Export Plug-In . SVG Version: 6.00 Build 0)  -->
<!DOCTYPE svg PUBLIC "-//W3C//DTD SVG 1.1//EN" "http://www.w3.org/Graphics/SVG/1.1/DTD/svg11.dtd">
<svg version="1.1" id="Layer_1" xmlns="http://www.w3.org/2000/svg" xmlns:xlink="http://www.w3.org/1999/xlink" x="0px" y="0px"
	 width="207.035px" height="55px" viewBox="0 0 207.035 55" enable-background="new 0 0 207.035 55" xml:space="preserve">
<g>
	<g>
		<rect x="155.321" y="2.017" fill="#F16824" width="50.812" height="50.811"/>
		<g>
			<polygon fill="none" points="186.428,14.917 184.907,15.918 188.625,13.47 			"/>
			<polygon fill="none" points="189.678,11.27 188.625,13.47 189.678,11.271 			"/>
			<polygon fill="none" points="191.36,36.468 192.808,38.632 190.237,34.788 			"/>
			<g>
				<polygon fill="none" points="186.429,14.916 186.428,14.917 186.427,14.917 				"/>
				<polygon fill="none" points="189.678,11.271 189.678,11.27 189.677,11.271 				"/>
				<polygon fill="#FFFFFF" points="194.574,36.71 193.211,35.255 190.237,34.788 190.701,24.161 190.701,24.159 190.329,11.27 
					190.082,5.785 189.678,11.27 189.678,11.271 189.677,11.271 189.678,11.27 186.301,8.729 188.625,13.47 183.946,11.27 
					186.428,14.917 186.429,14.916 186.427,14.917 186.428,14.917 183.605,13.842 183.605,14.028 184.907,15.918 186.115,18.118 
					184.043,17.734 185.557,20.411 182.52,19.946 184.04,22.209 181.746,28.313 176.2,23.882 170.312,16.414 171.892,21.899 
					168.886,20.876 171.055,23.138 172.883,25.261 169.847,24.812 172.883,27.104 171.055,28.313 174.123,30.327 172.589,30.839 
					177.584,34.42 176.448,34.737 178.327,35.885 179.68,37.01 177.955,37.278 178.977,37.855 174.431,39.095 170.452,41.483 
					162.689,47.68 165.214,46.704 166.794,45.93 165.571,48.082 169.196,45.542 171.443,43.838 171.009,46.007 179.876,40.211 
					188.046,41.214 191.36,38.136 192.808,38.632 194.099,39.675 194.182,41.255 195.42,39.055 				"/>
			</g>
		</g>
	</g>
	<g>
		<g>
			<path d="M0.976,4.654h6.371c2.042,0,3.808,0.277,5.227,0.935c2.562,1.177,3.981,3.462,3.981,6.716
				c0,2.631-1.142,5.574-4.743,6.924c-1.315,0.485-2.942,0.761-4.951,0.761H6.272v7.478H0.976V4.654z M7.173,15.732
				c0.899,0,1.661-0.104,2.25-0.381c1.108-0.519,1.627-1.592,1.627-3.046c0-1.177-0.484-2.285-1.558-2.908
				C8.904,9.051,8.108,8.912,7.069,8.912H6.272v6.82H7.173z"/>
			<path d="M20.884,4.654h5.297v8.967h9.797V4.654h5.297v22.814h-5.297v-9.347h-9.797v9.347h-5.297V4.654z"/>
			<path d="M45.605,16.113c0-6.924,4.812-11.702,11.771-11.702c6.958,0,11.771,4.778,11.771,11.702s-4.812,11.702-11.771,11.702
				C50.417,27.815,45.605,23.037,45.605,16.113z M63.504,16.113c0-4.847-2.527-7.305-6.127-7.305c-3.601,0-6.128,2.458-6.128,7.305
				s2.527,7.305,6.128,7.305C60.977,23.418,63.504,20.96,63.504,16.113z"/>
			<path d="M73.478,4.654h13.709l-1.35,4.466h-7.062v4.604h7.166v4.466h-7.166v4.812h8.343v4.466h-13.64V4.654z"/>
			<path d="M108.271,27.468l-9.174-12.013c-0.727-0.935-1.384-1.835-2.146-2.839h-0.07c0.104,0.762,0.104,2.285,0.104,3.254v11.597
				h-5.297V4.654h5.297l8.863,11.529c0.727,0.935,1.385,1.8,2.043,2.77h0.068c-0.068-1.177-0.068-2.839-0.068-3.739V4.654h5.297
				v22.814H108.271z"/>
			<path d="M118.383,4.654h5.297v22.814h-5.297V4.654z"/>
			<path d="M134.725,16.044l-7.513-11.39h5.851l4.916,7.409l5.4-7.409h5.678l-8.136,11.217l7.65,11.597h-5.851l-5.055-7.616
				l-5.539,7.616h-5.677L134.725,16.044z"/>
		</g>
		<g>
			<path d="M6.373,50.59c-3.455,0-6.021-1.981-6.021-5.029c0-2.287,1.651-3.76,3.353-4.598c-0.914-0.991-1.828-1.956-1.828-3.582
				c0-2.058,1.904-3.962,5.359-3.962c3.378,0,5.334,1.727,5.334,3.987c0,1.905-1.473,3.303-3.251,4.242
				c0.838,0.864,2.032,2.007,2.921,2.845c0.737-0.787,1.549-1.98,1.854-3.353l3.226,0.812c-0.686,2.235-1.6,3.633-2.616,4.674
				c0.71,0.533,1.397,0.863,2.387,0.863c0.355,0,0.584-0.051,0.762-0.102l0.634,2.769c-0.609,0.254-1.473,0.331-2.057,0.331
				c-1.575,0-3.023-0.534-4.445-1.626C10.36,50.056,8.531,50.59,6.373,50.59z M9.446,46.779c-1.27-1.092-2.642-2.413-3.708-3.582
				C4.925,43.706,4.29,44.29,4.29,45.356c0,1.271,1.143,2.211,2.667,2.211C7.896,47.567,8.734,47.287,9.446,46.779z M8.684,37.355
				c0-0.762-0.558-1.27-1.473-1.27c-0.939,0-1.397,0.533-1.397,1.193c0,0.56,0.28,1.22,1.295,2.134
				C8.227,38.778,8.684,37.991,8.684,37.355z"/>
			<path d="M26.52,33.597h4.673c1.499,0,2.794,0.203,3.836,0.686c1.879,0.863,2.921,2.54,2.921,4.928c0,1.931-0.838,4.089-3.48,5.08
				c-0.965,0.355-2.159,0.559-3.632,0.559h-0.432v5.486H26.52V33.597z M31.066,41.725c0.661,0,1.22-0.076,1.651-0.279
				c0.813-0.381,1.194-1.169,1.194-2.235c0-0.863-0.355-1.676-1.144-2.134c-0.432-0.254-1.016-0.355-1.778-0.355h-0.584v5.004
				H31.066z"/>
			<path d="M45.853,33.521h3.2l6.935,16.814h-4.166l-1.6-3.988h-5.435l-1.524,3.988h-3.988L45.853,33.521z M49.053,43.248
				l-0.787-2.311c-0.381-1.144-0.584-1.854-0.712-2.388h-0.051c-0.127,0.559-0.355,1.27-0.787,2.413l-0.838,2.285H49.053z"/>
			<path d="M57.946,33.597h5.385c1.448,0,2.565,0.203,3.455,0.559c2.057,0.838,2.845,2.515,2.845,4.369
				c0,2.159-1.422,3.683-3.201,4.242v0.051c0.508,0.304,1.27,1.193,2.134,2.769l2.642,4.749h-4.419l-2.032-3.81
				c-0.864-1.626-1.422-2.235-1.804-2.312h-1.117v6.121h-3.887V33.597z M63.052,41.09c0.711,0,1.143-0.127,1.524-0.33
				c0.61-0.355,1.016-0.99,1.016-1.854c0-0.838-0.431-1.575-1.168-1.931c-0.33-0.152-0.71-0.254-1.346-0.254h-1.244v4.369H63.052z"
				/>
			<path d="M77,36.873h-4.902v-3.276h14.071l-0.99,3.276h-4.293v13.462H77V36.873z"/>
			<path d="M100.244,50.335l-6.731-8.813c-0.533-0.686-1.016-1.347-1.575-2.083h-0.051c0.076,0.559,0.076,1.677,0.076,2.388v8.509
				h-3.886V33.597h3.886l6.502,8.458c0.534,0.687,1.017,1.32,1.499,2.032h0.051c-0.051-0.864-0.051-2.083-0.051-2.743v-7.747h3.887
				v16.738H100.244z"/>
			<path d="M107.666,33.597h10.059l-0.991,3.276h-5.182v3.378h5.258v3.277h-5.258v3.53h6.122v3.276h-10.008V33.597z"/>
			<path d="M121.028,33.597h5.386c1.447,0,2.564,0.203,3.453,0.559c2.058,0.838,2.846,2.515,2.846,4.369
				c0,2.159-1.423,3.683-3.2,4.242v0.051c0.507,0.304,1.27,1.193,2.133,2.769l2.642,4.749h-4.42l-2.031-3.81
				c-0.864-1.626-1.422-2.235-1.804-2.312h-1.118v6.121h-3.886V33.597z M126.133,41.09c0.711,0,1.144-0.127,1.524-0.33
				c0.609-0.355,1.016-0.99,1.016-1.854c0-0.838-0.432-1.575-1.168-1.931c-0.331-0.152-0.712-0.254-1.347-0.254h-1.245v4.369
				H126.133z"/>
			<path d="M138.81,46.094c1.118,0.762,2.389,1.27,3.861,1.27c1.143,0,2.389-0.381,2.389-1.473c0-2.77-7.112-2.413-7.112-7.57
				c0-2.564,2.058-4.901,5.765-4.901c1.854,0,3.404,0.406,4.421,0.914v3.48c-1.55-0.763-2.922-1.169-4.294-1.169
				c-0.939,0-1.752,0.33-1.752,1.347c0,2.591,7.112,2.184,7.112,7.569c0,3.099-2.794,5.029-6.376,5.029
				c-1.981,0-4.039-0.534-5.486-1.575L138.81,46.094z"/>
		</g>
	</g>
</g>
</svg>
