<?xml version="1.0" encoding="utf-8"?>
<!-- Generator: Adobe Illustrator 16.0.0, SVG Export Plug-In . SVG Version: 6.00 Build 0)  -->
<!DOCTYPE svg PUBLIC "-//W3C//DTD SVG 1.1//EN" "http://www.w3.org/Graphics/SVG/1.1/DTD/svg11.dtd">
<svg version="1.1" id="Layer_1" xmlns="http://www.w3.org/2000/svg" xmlns:xlink="http://www.w3.org/1999/xlink" x="0px" y="0px"
	 width="45px" height="45px" viewBox="0 0 45 45" enable-background="new 0 0 45 45" xml:space="preserve">
<g>
	<path fill="none" stroke="#A8A8A8" stroke-width="2" stroke-miterlimit="10" d="M22.609,4.766
		c-11.465,0-20.756,7.294-20.756,16.295c0,4.273,2.083,8.152,5.498,11.061c-0.13,2.837-0.722,6.644-2.793,8.597
		c3.967,0,8.021-2.604,10.422-4.486c2.361,0.738,4.936,1.144,7.629,1.144c11.446,0,20.738-7.31,20.738-16.315
		C43.347,12.061,34.055,4.766,22.609,4.766L22.609,4.766z M13.706,25.522c-1.636,0-2.969-1.335-2.969-2.969
		c0-1.637,1.333-2.967,2.969-2.967c1.637,0,2.967,1.33,2.967,2.967C16.673,24.188,15.343,25.522,13.706,25.522L13.706,25.522z
		 M22.609,25.522c-1.654,0-2.969-1.335-2.969-2.969c0-1.637,1.315-2.967,2.969-2.967c1.633,0,2.951,1.33,2.951,2.967
		C25.56,24.188,24.242,25.522,22.609,25.522L22.609,25.522z M31.493,25.522c-1.636,0-2.967-1.335-2.967-2.969
		c0-1.637,1.331-2.967,2.967-2.967s2.967,1.33,2.967,2.967C34.46,24.188,33.129,25.522,31.493,25.522L31.493,25.522z M31.493,25.522
		"/>
</g>
</svg>
