<?xml version="1.0" encoding="utf-8"?>
<!-- Generator: Adobe Illustrator 16.0.0, SVG Export Plug-In . SVG Version: 6.00 Build 0)  -->
<!DOCTYPE svg PUBLIC "-//W3C//DTD SVG 1.1//EN" "http://www.w3.org/Graphics/SVG/1.1/DTD/svg11.dtd">
<svg version="1.1" id="Layer_1" xmlns="http://www.w3.org/2000/svg" xmlns:xlink="http://www.w3.org/1999/xlink" x="0px" y="0px"
	 width="45px" height="45px" viewBox="0 0 45 45" enable-background="new 0 0 45 45" xml:space="preserve">
<g>
	<g>
		<path fill="#A8A8A8" stroke="#A8A8A8" stroke-width="0.5" stroke-miterlimit="10" d="M24.517,40.919h-3.887
			c-0.587,0-0.789,0.002-2.782-5.033l-1.541-0.636c-4.193,1.938-4.691,1.938-4.855,1.938h-0.322l-0.274-0.237L8.1,34.202
			c-0.419-0.427-0.564-0.574,1.592-5.542l-0.627-1.514c-5.063-1.851-5.063-2.062-5.063-2.674v-3.885c0-0.607,0-0.8,5.047-2.789
			l0.627-1.517c-2.282-4.89-2.125-5.045-1.673-5.476l2.963-2.963l0.37-0.009c0.444,0,2.105,0.617,4.937,1.835l1.535-0.637
			c1.848-5.051,2.075-5.051,2.658-5.051h3.888c0.58,0,0.784,0,2.78,5.035l1.542,0.633c4.187-1.937,4.688-1.937,4.858-1.937h0.319
			l0.273,0.237l2.757,2.741c0.418,0.43,0.56,0.578-1.597,5.549l0.631,1.523c5.069,1.841,5.069,2.053,5.069,2.664v3.881
			c0,0.595,0,0.804-5.054,2.793l-0.625,1.519c2.271,4.869,2.118,5.023,1.697,5.46l-2.986,2.979l-0.373,0.009
			c-0.444,0-2.099-0.617-4.927-1.838l-1.545,0.637C25.32,40.919,25.112,40.919,24.517,40.919L24.517,40.919z M21.033,39.315H24.1
			c0.35-0.729,1.113-2.671,1.722-4.338l0.124-0.334l2.789-1.147l0.304,0.129c1.661,0.723,3.628,1.525,4.394,1.771l2.156-2.146
			c-0.274-0.775-1.103-2.668-1.853-4.262l-0.152-0.324l1.157-2.812l0.312-0.122c1.684-0.662,3.63-1.476,4.357-1.845v-3.018
			c-0.734-0.354-2.677-1.105-4.347-1.709l-0.329-0.12l-1.164-2.813l0.139-0.319c0.717-1.646,1.515-3.585,1.771-4.367l-2.164-2.153
			c-0.696,0.248-2.648,1.102-4.297,1.867l-0.306,0.144l-2.791-1.146l-0.126-0.319c-0.659-1.677-1.479-3.624-1.851-4.344H20.88
			c-0.353,0.729-1.109,2.667-1.718,4.337l-0.119,0.328l-2.784,1.153l-0.303-0.131c-1.667-0.72-3.638-1.52-4.404-1.767l-2.153,2.149
			c0.27,0.771,1.104,2.664,1.848,4.258L11.4,16.24l-1.161,2.812l-0.311,0.123c-1.681,0.658-3.623,1.471-4.352,1.841v3.021
			c0.734,0.356,2.674,1.107,4.344,1.716l0.325,0.123l1.164,2.801l-0.139,0.319c-0.716,1.641-1.51,3.581-1.766,4.359l2.163,2.159
			c0.696-0.247,2.644-1.102,4.294-1.867l0.309-0.145l2.787,1.154l0.125,0.314C19.847,36.651,20.664,38.596,21.033,39.315
			L21.033,39.315z M22.492,28.914c-3.562,0-6.467-2.898-6.467-6.462c0-3.563,2.901-6.462,6.467-6.462
			c3.562,0,6.459,2.898,6.459,6.462C28.951,26.016,26.055,28.914,22.492,28.914L22.492,28.914z M22.492,17.593
			c-2.7,0-4.89,2.178-4.89,4.858c0,2.676,2.19,4.859,4.89,4.859c2.696,0,4.887-2.183,4.887-4.859
			C27.379,19.771,25.188,17.593,22.492,17.593L22.492,17.593z M22.492,17.593"/>
	</g>
</g>
</svg>
